<svg xmlns="http://www.w3.org/2000/svg" viewBox="0 0 640 420" role="img">
  <defs>
    <linearGradient id="bg" x1="0" y1="0" x2="1" y2="1">
      <stop offset="0" stop-color="#2f2447"/>
      <stop offset="1" stop-color="#7d476f"/>
    </linearGradient>
  </defs>
  <rect width="640" height="420" rx="40" fill="url(#bg)"/>

  <g>
    <path d="M101 160h202v131H101z" fill="#f7d77a" transform="rotate(-7 202 225)"/>
    <path d="M337 141h202v131H337z" fill="#f5a7c1" transform="rotate(7 438 206)"/>
    <path d="M231 200h178l-18 153H249z" fill="#fff1df"/>
  </g>
  <path d="M248 215h144l-10 35H258z" fill="#e94e7d"/>
  <g fill="#ffd66f"><circle cx="284" cy="203" r="18"/><circle cx="324" cy="197" r="20"/><circle cx="362" cy="205" r="18"/><circle cx="303" cy="224" r="18"/><circle cx="345" cy="224" r="18"/></g>
  <path d="M320 316c-21-15-37-27-37-45 0-14 11-25 25-25 8 0 14 4 19 10 4-6 10-10 18-10 14 0 25 11 25 25 0 18-16 30-37 45l-6 5z" fill="#e44d7b"/>
  <circle cx="154" cy="220" r="18" fill="#8b5f9c"/><circle cx="485" cy="202" r="18" fill="#8b5f9c"/>

</svg>
