<svg xmlns="http://www.w3.org/2000/svg" viewBox="0 0 640 420" role="img">
  <defs>
    <linearGradient id="bg" x1="0" y1="0" x2="1" y2="1">
      <stop offset="0" stop-color="#fff5ee"/>
      <stop offset="1" stop-color="#f1d8ff"/>
    </linearGradient>
  </defs>
  <rect width="640" height="420" rx="40" fill="url(#bg)"/>

  <g>
    <rect x="88" y="118" width="144" height="196" rx="24" fill="#fff" transform="rotate(-7 160 216)"/>
    <rect x="248" y="91" width="144" height="220" rx="24" fill="#fff"/>
    <rect x="409" y="118" width="144" height="196" rx="24" fill="#fff" transform="rotate(7 481 216)"/>
  </g>
  <circle cx="160" cy="188" r="32" fill="#f7b35e"/><path d="M160 240l12 27 29 3-22 19 7 28-26-15-25 15 6-28-22-19 29-3z" fill="#dd759b"/>
  <path d="M320 184c-28-21-50-37-50-62 0-20 16-35 35-35 11 0 20 6 26 14 6-8 15-14 26-14 20 0 35 15 35 35 0 25-22 41-50 62l-11 8z" fill="#e95586"/>
  <path d="M481 178l13 30 32 3-25 21 8 31-28-16-27 16 7-31-24-21 32-3z" fill="#8d6eb4"/>

</svg>
