<svg xmlns="http://www.w3.org/2000/svg" viewBox="0 0 640 420" role="img">
  <defs>
    <linearGradient id="bg" x1="0" y1="0" x2="1" y2="1">
      <stop offset="0" stop-color="#f1fff9"/>
      <stop offset="1" stop-color="#bee1d4"/>
    </linearGradient>
  </defs>
  <rect width="640" height="420" rx="40" fill="url(#bg)"/>

  <g>
    <rect x="163" y="74" width="314" height="277" rx="30" fill="#fff"/>
    <path d="M163 141h314" stroke="#4f9a85" stroke-width="18"/>
    <path d="M228 57v62M412 57v62" stroke="#327866" stroke-width="18" stroke-linecap="round"/>
    <rect x="208" y="177" width="224" height="112" rx="22" fill="#e8f7f1"/>
  </g>
  <path d="M320 185l14 32 35 3-27 23 8 34-30-18-30 18 8-34-27-23 35-3z" fill="#f2b94f"/>
  <path d="M320 330c-20-15-36-26-36-44 0-14 11-24 24-24 8 0 14 4 18 10 4-6 10-10 18-10 13 0 24 10 24 24 0 18-16 29-36 44l-6 4z" fill="#eb6e96"/>

</svg>
