<svg xmlns="http://www.w3.org/2000/svg" viewBox="0 0 640 420" role="img">
  <defs>
    <linearGradient id="bg" x1="0" y1="0" x2="1" y2="1">
      <stop offset="0" stop-color="#f4f0ff"/>
      <stop offset="1" stop-color="#d4e5ff"/>
    </linearGradient>
  </defs>
  <rect width="640" height="420" rx="40" fill="url(#bg)"/>

  <path d="M134 114c0-44 36-80 80-80s80 36 80 80c0 58-80 128-80 128s-80-70-80-128z" fill="#7861a6"/>
  <circle cx="214" cy="112" r="28" fill="#fff"/>
  <path d="M426 270c0-44 36-80 80-80s80 36 80 80c0 58-80 128-80 128s-80-70-80-128z" fill="#e3608c"/>
  <circle cx="506" cy="268" r="28" fill="#fff"/>
  <path d="M239 222c35 69 109 84 197 52" fill="none" stroke="#886b9f" stroke-width="10" stroke-linecap="round" stroke-dasharray="14 18"/>
  <path d="M336 294c-23-17-41-30-41-50 0-16 12-27 27-27 9 0 16 4 21 11 4-7 12-11 20-11 15 0 28 11 28 27 0 20-18 33-41 50l-7 5z" fill="#f05989"/>

</svg>
