<svg xmlns="http://www.w3.org/2000/svg" viewBox="0 0 640 420" role="img">
  <defs>
    <linearGradient id="bg" x1="0" y1="0" x2="1" y2="1">
      <stop offset="0" stop-color="#fff7e7"/>
      <stop offset="1" stop-color="#efc0c7"/>
    </linearGradient>
  </defs>
  <rect width="640" height="420" rx="40" fill="url(#bg)"/>

  <g fill="#fffdf7" stroke="#a85e75" stroke-width="9">
    <path d="M175 92h122l-17 136c-4 34-27 56-44 56s-40-22-44-56z"/>
    <path d="M343 92h122l-17 136c-4 34-27 56-44 56s-40-22-44-56z"/>
    <path d="M236 284v61M404 284v61M194 345h84M362 345h84" stroke-linecap="round"/>
  </g>
  <path d="M192 176h88l-7 52c-3 23-20 38-37 38s-34-15-37-38zM360 176h88l-7 52c-3 23-20 38-37 38s-34-15-37-38z" fill="#f4a1b4" opacity=".9"/>
  <path d="M320 203c-22-16-39-29-39-48 0-15 12-26 27-26 8 0 15 4 20 10 4-6 11-10 19-10 15 0 27 11 27 26 0 19-17 32-39 48l-7 5z" fill="#e14f7e"/>
  <path d="M126 80l14 13M514 80l-14 13M320 58v24" stroke="#d99b45" stroke-width="8" stroke-linecap="round"/>

</svg>
