<svg xmlns="http://www.w3.org/2000/svg" viewBox="0 0 640 420" role="img">
  <defs>
    <linearGradient id="bg" x1="0" y1="0" x2="1" y2="1">
      <stop offset="0" stop-color="#26153d"/>
      <stop offset="1" stop-color="#74335f"/>
    </linearGradient>
  </defs>
  <rect width="640" height="420" rx="40" fill="url(#bg)"/>

  <circle cx="104" cy="84" r="4" fill="#fff7d6"/><circle cx="155" cy="132" r="7" fill="#fff7d6" opacity=".8"/>
  <circle cx="526" cy="96" r="5" fill="#fff7d6"/><circle cx="489" cy="164" r="3" fill="#fff7d6"/>
  <path d="M92 205h28M106 191v28M519 247h32M535 231v32" stroke="#ffd7e5" stroke-width="6" stroke-linecap="round"/>
  <g><path d="M320 314C249 263 194 222 194 159c0-48 38-83 84-83 27 0 48 13 62 34 14-21 35-34 62-34 46 0 84 35 84 83 0 63-55 104-126 155l-20 14z" fill="#ee5d8c"/></g>
  <path d="M320 86l9 20 22 2-17 15 5 22-19-11-20 11 5-22-17-15 23-2z" fill="#ffe8a8"/>
  <circle cx="320" cy="210" r="132" fill="none" stroke="#f7b8cf" stroke-width="3" opacity=".28"/>

</svg>
