<svg xmlns="http://www.w3.org/2000/svg" viewBox="0 0 260 190" role="img" aria-labelledby="title description">
  <title id="title">Конверт с сердцем</title>
  <desc id="description">Декоративная романтическая иллюстрация в розовых тонах</desc>
  <defs>
    <linearGradient id="paper" x1="0" y1="0" x2="1" y2="1">
      <stop offset="0" stop-color="#fff9fb"/>
      <stop offset="1" stop-color="#ffe3eb"/>
    </linearGradient>
    <linearGradient id="heart" x1="0" y1="0" x2="1" y2="1">
      <stop offset="0" stop-color="#ff7da5"/>
      <stop offset="1" stop-color="#ec477a"/>
    </linearGradient>
    <filter id="shadow" x="-20%" y="-20%" width="140%" height="150%">
      <feDropShadow dx="0" dy="7" stdDeviation="7" flood-color="#b52c59" flood-opacity=".16"/>
    </filter>
  </defs>
  <g fill="none" stroke-linecap="round">
    <path d="M33 50c-7-8-18-1-14 8 3 7 14 13 14 13s11-7 14-14c3-9-8-15-14-7Z" fill="#ff9fba" stroke="#ff9fba"/>
    <path d="M226 87c-5-6-14-1-11 7 2 5 11 10 11 10s9-5 11-11c2-7-6-12-11-6Z" fill="#ffc1d2" stroke="#ffc1d2"/>
    <path d="M209 36l4 8 9 1-7 6 2 9-8-5-8 5 2-9-7-6 9-1 4-8Z" fill="#ffd0dc" stroke="none"/>
  </g>
  <g filter="url(#shadow)">
    <rect x="38" y="47" width="184" height="119" rx="20" fill="url(#paper)" stroke="#f5adc2" stroke-width="3"/>
    <path d="m47 60 76 62a11 11 0 0 0 14 0l76-62" fill="#fff" stroke="#f4abc0" stroke-width="3"/>
    <path d="m45 155 61-54a36 36 0 0 1 48 0l61 54" fill="#ffeff4" stroke="#f4abc0" stroke-width="3"/>
    <path d="M130 117c-36-22-49-41-39-57 10-16 30-8 39 7 9-15 29-23 39-7 10 16-3 35-39 57Z" fill="url(#heart)" stroke="#fff7fa" stroke-width="4"/>
    <path d="M115 65c5-8 14-10 21-5" stroke="#ffb0c8" stroke-width="4" opacity=".75"/>
  </g>
</svg>
